<mxfile host="app.diagrams.net" modified="2023-07-10T01:30:16.047Z" agent="Mozilla/5.0 (Macintosh; Intel Mac OS X 10_15_7) AppleWebKit/537.36 (KHTML, like Gecko) Chrome/114.0.0.0 Safari/537.36" etag="G_bCuSwKvWlj8c2_1-s3" version="21.3.8" type="device">
  <diagram id="C5RBs43oDa-KdzZeNtuy" name="Page-1">
    <mxGraphModel dx="1562" dy="786" grid="1" gridSize="10" guides="1" tooltips="1" connect="1" arrows="1" fold="1" page="1" pageScale="1" pageWidth="827" pageHeight="1169" math="0" shadow="0">
      <root>
        <mxCell id="WIyWlLk6GJQsqaUBKTNV-0" />
        <mxCell id="WIyWlLk6GJQsqaUBKTNV-1" parent="WIyWlLk6GJQsqaUBKTNV-0" />
        <mxCell id="rJY7yKIfB8WZo3i-j_62-35" value="" style="rounded=0;whiteSpace=wrap;html=1;" vertex="1" parent="WIyWlLk6GJQsqaUBKTNV-1">
          <mxGeometry x="20" y="30" width="560" height="490" as="geometry" />
        </mxCell>
        <mxCell id="rJY7yKIfB8WZo3i-j_62-34" value="" style="rounded=0;whiteSpace=wrap;html=1;" vertex="1" parent="WIyWlLk6GJQsqaUBKTNV-1">
          <mxGeometry x="20" y="540" width="540" height="260" as="geometry" />
        </mxCell>
        <mxCell id="WIyWlLk6GJQsqaUBKTNV-2" value="" style="rounded=0;html=1;jettySize=auto;orthogonalLoop=1;fontSize=11;endArrow=block;endFill=0;endSize=8;strokeWidth=1;shadow=0;labelBackgroundColor=none;edgeStyle=orthogonalEdgeStyle;" parent="WIyWlLk6GJQsqaUBKTNV-1" edge="1">
          <mxGeometry relative="1" as="geometry">
            <mxPoint x="240" y="140" as="sourcePoint" />
            <mxPoint x="240" y="190" as="targetPoint" />
          </mxGeometry>
        </mxCell>
        <mxCell id="rJY7yKIfB8WZo3i-j_62-0" value="지문 인식 성공?" style="rhombus;whiteSpace=wrap;html=1;shadow=0;fontFamily=Helvetica;fontSize=12;align=center;strokeWidth=1;spacing=6;spacingTop=-4;" vertex="1" parent="WIyWlLk6GJQsqaUBKTNV-1">
          <mxGeometry x="140" y="60" width="200" height="80" as="geometry" />
        </mxCell>
        <mxCell id="rJY7yKIfB8WZo3i-j_62-3" value="Yes" style="edgeStyle=orthogonalEdgeStyle;rounded=0;html=1;jettySize=auto;orthogonalLoop=1;fontSize=11;endArrow=block;endFill=0;endSize=8;strokeWidth=1;shadow=0;labelBackgroundColor=none;exitX=1;exitY=0.5;exitDx=0;exitDy=0;" edge="1" parent="WIyWlLk6GJQsqaUBKTNV-1" source="rJY7yKIfB8WZo3i-j_62-0">
          <mxGeometry x="-0.149" y="10" relative="1" as="geometry">
            <mxPoint as="offset" />
            <mxPoint x="300" y="360" as="sourcePoint" />
            <mxPoint x="410" y="100" as="targetPoint" />
          </mxGeometry>
        </mxCell>
        <mxCell id="rJY7yKIfB8WZo3i-j_62-4" value="정상 시나리오" style="rounded=1;whiteSpace=wrap;html=1;fontSize=12;glass=0;strokeWidth=1;shadow=0;" vertex="1" parent="WIyWlLk6GJQsqaUBKTNV-1">
          <mxGeometry x="410" y="80" width="120" height="40" as="geometry" />
        </mxCell>
        <mxCell id="rJY7yKIfB8WZo3i-j_62-5" value="No&lt;br&gt;*5회 이상 실패" style="text;html=1;strokeColor=none;fillColor=none;align=center;verticalAlign=middle;whiteSpace=wrap;rounded=0;" vertex="1" parent="WIyWlLk6GJQsqaUBKTNV-1">
          <mxGeometry x="235" y="145" width="90" height="30" as="geometry" />
        </mxCell>
        <mxCell id="rJY7yKIfB8WZo3i-j_62-8" value="OS Error code : 7&lt;br&gt;OS Error message :&lt;br&gt;시도 횟수가 너무 많습니다. 나중에 다시 시도하세요.(30초 사용 불가)" style="rounded=1;whiteSpace=wrap;html=1;fontSize=12;glass=0;strokeWidth=1;shadow=0;" vertex="1" parent="WIyWlLk6GJQsqaUBKTNV-1">
          <mxGeometry x="140" y="190" width="200" height="70" as="geometry" />
        </mxCell>
        <mxCell id="rJY7yKIfB8WZo3i-j_62-10" value="지문 인식 성공?" style="rhombus;whiteSpace=wrap;html=1;shadow=0;fontFamily=Helvetica;fontSize=12;align=center;strokeWidth=1;spacing=6;spacingTop=-4;" vertex="1" parent="WIyWlLk6GJQsqaUBKTNV-1">
          <mxGeometry x="140" y="302" width="200" height="80" as="geometry" />
        </mxCell>
        <mxCell id="rJY7yKIfB8WZo3i-j_62-13" value="" style="rounded=0;html=1;jettySize=auto;orthogonalLoop=1;fontSize=11;endArrow=block;endFill=0;endSize=8;strokeWidth=1;shadow=0;labelBackgroundColor=none;edgeStyle=orthogonalEdgeStyle;" edge="1" parent="WIyWlLk6GJQsqaUBKTNV-1">
          <mxGeometry relative="1" as="geometry">
            <mxPoint x="240" y="382" as="sourcePoint" />
            <mxPoint x="240" y="432" as="targetPoint" />
          </mxGeometry>
        </mxCell>
        <mxCell id="rJY7yKIfB8WZo3i-j_62-14" value="No&lt;br&gt;*5회 이상 실패" style="text;html=1;strokeColor=none;fillColor=none;align=center;verticalAlign=middle;whiteSpace=wrap;rounded=0;" vertex="1" parent="WIyWlLk6GJQsqaUBKTNV-1">
          <mxGeometry x="235" y="382" width="90" height="30" as="geometry" />
        </mxCell>
        <mxCell id="rJY7yKIfB8WZo3i-j_62-16" value="" style="rounded=0;html=1;jettySize=auto;orthogonalLoop=1;fontSize=11;endArrow=block;endFill=0;endSize=8;strokeWidth=1;shadow=0;labelBackgroundColor=none;edgeStyle=orthogonalEdgeStyle;exitX=0.5;exitY=1;exitDx=0;exitDy=0;entryX=0.5;entryY=0;entryDx=0;entryDy=0;" edge="1" parent="WIyWlLk6GJQsqaUBKTNV-1" source="rJY7yKIfB8WZo3i-j_62-8" target="rJY7yKIfB8WZo3i-j_62-10">
          <mxGeometry relative="1" as="geometry">
            <mxPoint x="250" y="392" as="sourcePoint" />
            <mxPoint x="240" y="300" as="targetPoint" />
            <Array as="points">
              <mxPoint x="240" y="260" />
            </Array>
          </mxGeometry>
        </mxCell>
        <mxCell id="rJY7yKIfB8WZo3i-j_62-17" value="OS Error code : 9&lt;br&gt;OS Error message :&lt;br&gt;시도 횟수가 너무 많습니다. 지문 센서가 사용 중지 되었습니다.(수분 사용 불가)" style="rounded=1;whiteSpace=wrap;html=1;fontSize=12;glass=0;strokeWidth=1;shadow=0;" vertex="1" parent="WIyWlLk6GJQsqaUBKTNV-1">
          <mxGeometry x="140" y="430" width="200" height="70" as="geometry" />
        </mxCell>
        <mxCell id="rJY7yKIfB8WZo3i-j_62-19" value="&lt;br&gt;" style="edgeStyle=orthogonalEdgeStyle;rounded=0;html=1;jettySize=auto;orthogonalLoop=1;fontSize=11;endArrow=block;endFill=0;endSize=8;strokeWidth=1;shadow=0;labelBackgroundColor=none;entryX=0;entryY=0.5;entryDx=0;entryDy=0;exitX=0;exitY=0.5;exitDx=0;exitDy=0;" edge="1" parent="WIyWlLk6GJQsqaUBKTNV-1" source="rJY7yKIfB8WZo3i-j_62-17" target="rJY7yKIfB8WZo3i-j_62-0">
          <mxGeometry x="-0.1215" y="20" relative="1" as="geometry">
            <mxPoint as="offset" />
            <mxPoint x="170" y="411.5" as="sourcePoint" />
            <mxPoint x="10" y="131.5" as="targetPoint" />
            <Array as="points">
              <mxPoint x="140" y="470" />
              <mxPoint x="60" y="470" />
              <mxPoint x="60" y="100" />
            </Array>
          </mxGeometry>
        </mxCell>
        <mxCell id="rJY7yKIfB8WZo3i-j_62-23" value="* 이 때 앱에서 실행을 막지 않고&lt;br&gt;생체 인식을 코드를 시도한다면 순서도 B 실행" style="text;html=1;strokeColor=none;fillColor=none;align=left;verticalAlign=middle;whiteSpace=wrap;rounded=0;" vertex="1" parent="WIyWlLk6GJQsqaUBKTNV-1">
          <mxGeometry x="350" y="230" width="240" height="30" as="geometry" />
        </mxCell>
        <mxCell id="rJY7yKIfB8WZo3i-j_62-24" value="사용자가 얼굴을 등록?" style="rhombus;whiteSpace=wrap;html=1;shadow=0;fontFamily=Helvetica;fontSize=12;align=center;strokeWidth=1;spacing=6;spacingTop=-4;" vertex="1" parent="WIyWlLk6GJQsqaUBKTNV-1">
          <mxGeometry x="110" y="580" width="200" height="80" as="geometry" />
        </mxCell>
        <mxCell id="rJY7yKIfB8WZo3i-j_62-26" value="순서도 A" style="text;html=1;strokeColor=none;fillColor=none;align=center;verticalAlign=middle;whiteSpace=wrap;rounded=0;" vertex="1" parent="WIyWlLk6GJQsqaUBKTNV-1">
          <mxGeometry x="60" y="40" width="60" height="30" as="geometry" />
        </mxCell>
        <mxCell id="rJY7yKIfB8WZo3i-j_62-27" value="순서도 B" style="text;html=1;strokeColor=none;fillColor=none;align=center;verticalAlign=middle;whiteSpace=wrap;rounded=0;" vertex="1" parent="WIyWlLk6GJQsqaUBKTNV-1">
          <mxGeometry x="30" y="550" width="60" height="30" as="geometry" />
        </mxCell>
        <mxCell id="rJY7yKIfB8WZo3i-j_62-28" value="* 이 때 앱에서 실행을 막지 않고&lt;br&gt;생체 인식을 코드를 시도한다면 순서도 B 실행" style="text;html=1;strokeColor=none;fillColor=none;align=left;verticalAlign=middle;whiteSpace=wrap;rounded=0;" vertex="1" parent="WIyWlLk6GJQsqaUBKTNV-1">
          <mxGeometry x="350" y="470" width="240" height="30" as="geometry" />
        </mxCell>
        <mxCell id="rJY7yKIfB8WZo3i-j_62-29" value="" style="rounded=0;html=1;jettySize=auto;orthogonalLoop=1;fontSize=11;endArrow=block;endFill=0;endSize=8;strokeWidth=1;shadow=0;labelBackgroundColor=none;edgeStyle=orthogonalEdgeStyle;" edge="1" parent="WIyWlLk6GJQsqaUBKTNV-1">
          <mxGeometry relative="1" as="geometry">
            <mxPoint x="210" y="660" as="sourcePoint" />
            <mxPoint x="210" y="710" as="targetPoint" />
          </mxGeometry>
        </mxCell>
        <mxCell id="rJY7yKIfB8WZo3i-j_62-30" value="No" style="text;html=1;strokeColor=none;fillColor=none;align=center;verticalAlign=middle;whiteSpace=wrap;rounded=0;" vertex="1" parent="WIyWlLk6GJQsqaUBKTNV-1">
          <mxGeometry x="180" y="660" width="90" height="30" as="geometry" />
        </mxCell>
        <mxCell id="rJY7yKIfB8WZo3i-j_62-31" value="Yes" style="edgeStyle=orthogonalEdgeStyle;rounded=0;html=1;jettySize=auto;orthogonalLoop=1;fontSize=11;endArrow=block;endFill=0;endSize=8;strokeWidth=1;shadow=0;labelBackgroundColor=none;exitX=1;exitY=0.5;exitDx=0;exitDy=0;" edge="1" parent="WIyWlLk6GJQsqaUBKTNV-1">
          <mxGeometry x="-0.149" y="10" relative="1" as="geometry">
            <mxPoint as="offset" />
            <mxPoint x="309" y="620" as="sourcePoint" />
            <mxPoint x="379" y="620" as="targetPoint" />
          </mxGeometry>
        </mxCell>
        <mxCell id="rJY7yKIfB8WZo3i-j_62-32" value="생체 인식 시도 가능&lt;br&gt;(이하 순서도 A와 동일)" style="rounded=1;whiteSpace=wrap;html=1;fontSize=12;glass=0;strokeWidth=1;shadow=0;" vertex="1" parent="WIyWlLk6GJQsqaUBKTNV-1">
          <mxGeometry x="379" y="600" width="120" height="40" as="geometry" />
        </mxCell>
        <mxCell id="rJY7yKIfB8WZo3i-j_62-33" value="OS Error code : 11&lt;br&gt;OS Error message :&lt;br&gt;얼굴 인식 잠금 해제를 설정하지 않았습니다." style="rounded=1;whiteSpace=wrap;html=1;fontSize=12;glass=0;strokeWidth=1;shadow=0;" vertex="1" parent="WIyWlLk6GJQsqaUBKTNV-1">
          <mxGeometry x="110" y="710" width="200" height="70" as="geometry" />
        </mxCell>
        <mxCell id="rJY7yKIfB8WZo3i-j_62-36" value="Yes" style="edgeStyle=orthogonalEdgeStyle;rounded=0;html=1;jettySize=auto;orthogonalLoop=1;fontSize=11;endArrow=block;endFill=0;endSize=8;strokeWidth=1;shadow=0;labelBackgroundColor=none;exitX=1;exitY=0.5;exitDx=0;exitDy=0;" edge="1" parent="WIyWlLk6GJQsqaUBKTNV-1">
          <mxGeometry x="-0.149" y="10" relative="1" as="geometry">
            <mxPoint as="offset" />
            <mxPoint x="340" y="342" as="sourcePoint" />
            <mxPoint x="410" y="342" as="targetPoint" />
          </mxGeometry>
        </mxCell>
        <mxCell id="rJY7yKIfB8WZo3i-j_62-37" value="정상 시나리오" style="rounded=1;whiteSpace=wrap;html=1;fontSize=12;glass=0;strokeWidth=1;shadow=0;" vertex="1" parent="WIyWlLk6GJQsqaUBKTNV-1">
          <mxGeometry x="410" y="322" width="120" height="40" as="geometry" />
        </mxCell>
      </root>
    </mxGraphModel>
  </diagram>
</mxfile>
